<svg width="442" height="112" viewBox="0 0 442 112" fill="none" xmlns="http://www.w3.org/2000/svg">
<path d="M0 25C0 17.8203 5.8203 12 13 12H99C106.18 12 112 17.8203 112 25V86C112 100.359 100.359 112 86 112H26C11.6406 112 0 100.359 0 86V25Z" fill="#7469B6"/>
<path d="M12 60C12 53.3726 17.3726 48 24 48H88C94.6274 48 100 53.3726 100 60V70C100 86.5685 86.5685 100 70 100H42C25.4315 100 12 86.5685 12 70V60Z" fill="white"/>
<path d="M84.9998 66.5005H43C42.4477 66.5005 42 66.9482 42 67.5005V69.2505C42 69.8028 42.4477 70.2505 43 70.2505H84.9998C85.5521 70.2505 85.9998 69.8028 85.9998 69.2505V67.5005C85.9998 66.9482 85.5521 66.5005 84.9998 66.5005Z" fill="#7469B6"/>
<path d="M37 66.5005H31C30.4477 66.5005 30 66.9482 30 67.5005V69.2505C30 69.8028 30.4477 70.2505 31 70.2505H37C37.5522 70.2505 38 69.8028 38 69.2505V67.5005C38 66.9482 37.5522 66.5005 37 66.5005Z" fill="#7469B6"/>
<path d="M74.9996 74H46.9995C46.4472 74 45.9995 74.4477 45.9995 75V76.75C45.9995 77.3023 46.4472 77.75 46.9995 77.75H74.9996C75.5519 77.75 75.9996 77.3023 75.9996 76.75V75C75.9996 74.4477 75.5519 74 74.9996 74Z" fill="#7469B6"/>
<path d="M41 74H35C34.4477 74 34 74.4477 34 75V76.75C34 77.3023 34.4477 77.75 35 77.75H41C41.5522 77.75 42 77.3023 42 76.75V75C42 74.4477 41.5522 74 41 74Z" fill="#7469B6"/>
<path d="M72.9996 81.5H48.9995C48.4472 81.5 47.9995 81.9477 47.9995 82.5V84.25C47.9995 84.8023 48.4472 85.25 48.9995 85.25H72.9996C73.5519 85.25 73.9996 84.8023 73.9996 84.25V82.5C73.9996 81.9477 73.5519 81.5 72.9996 81.5Z" fill="#7469B6"/>
<path d="M43.0002 81.5H39C38.4477 81.5 38 81.9477 38 82.5V84.25C38 84.8023 38.4477 85.25 39 85.25H43.0002C43.5525 85.25 44.0002 84.8023 44.0002 84.25V82.5C44.0002 81.9477 43.5525 81.5 43.0002 81.5Z" fill="#7469B6"/>
<path d="M71.0001 59H39C38.4477 59 38 59.4477 38 60V61.75C38 62.3023 38.4477 62.75 39 62.75H71.0001C71.5523 62.75 72.0001 62.3023 72.0001 61.75V60C72.0001 59.4477 71.5523 59 71.0001 59Z" fill="#7469B6"/>
<path d="M33 59H27C26.4477 59 26 59.4477 26 60V61.75C26 62.3023 26.4477 62.75 27 62.75H33C33.5522 62.75 34 62.3023 34 61.75V60C34 59.4477 33.5522 59 33 59Z" fill="#7469B6"/>
<path d="M71 62.75H31C30.4477 62.75 30 63.1977 30 63.75V65.5C30 66.0523 30.4477 66.5 31 66.5H71C71.5523 66.5 72 66.0523 72 65.5V63.75C72 63.1977 71.5523 62.75 71 62.75Z" fill="#AD88C6"/>
<path d="M84.9998 70.25H35C34.4477 70.25 34 70.6977 34 71.25V73C34 73.5523 34.4477 74 35 74H84.9998C85.5521 74 85.9998 73.5523 85.9998 73V71.25C85.9998 70.6977 85.5521 70.25 84.9998 70.25Z" fill="#AD88C6"/>
<path d="M75 77.75H39C38.4477 77.75 38 78.1977 38 78.75V80.5C38 81.0523 38.4477 81.5 39 81.5H75C75.5523 81.5 76 81.0523 76 80.5V78.75C76 78.1977 75.5523 77.75 75 77.75Z" fill="#AD88C6"/>
<path d="M72.9999 85.25H43C42.4477 85.25 42 85.6977 42 86.25V88C42 88.5523 42.4477 89 43 89H72.9999C73.5521 89 73.9999 88.5523 73.9999 88V86.25C73.9999 85.6977 73.5521 85.25 72.9999 85.25Z" fill="#AD88C6"/>
<circle cx="26" cy="33" r="6" fill="white"/>
<circle cx="86" cy="33" r="6" fill="white"/>
<rect x="23" width="6" height="37" rx="3" fill="black"/>
<rect x="83" width="6" height="37" rx="3" fill="black"/>
<path d="M366.899 36.7855C367.886 36.7855 368.71 37.5393 368.797 38.5225L369.566 47.1966C369.585 47.4118 369.294 47.4963 369.195 47.3042C369.166 47.2481 369.165 47.1814 369.194 47.1252C371.131 43.3232 373.856 40.3265 377.37 38.1351C380.995 35.9266 385.127 34.8223 389.765 34.8223C392.716 34.8223 395.33 35.2722 397.606 36.172C399.883 37.0718 401.738 38.3805 403.171 40.0983C404.665 41.7084 405.628 43.7145 406.06 46.1167C406.072 46.1867 406.04 46.257 405.978 46.2927C405.829 46.3795 405.663 46.2163 405.75 46.0672C407.746 42.6424 410.427 39.9574 413.795 38.0125C417.421 35.8857 421.216 34.8223 425.179 34.8223C430.322 34.8223 434.369 36.2538 437.32 39.1167C440.356 41.8979 441.916 45.538 442 50.037V82.583C442 85.3445 439.762 87.583 437 87.583H435.238C432.476 87.583 430.238 85.3445 430.238 82.583V54.0861C430.153 51.4685 429.479 49.3008 428.214 47.583C427.034 45.7834 424.926 44.8018 421.89 44.6382C418.855 44.6382 416.114 45.538 413.669 47.3376C411.308 49.1372 409.453 51.4685 408.104 54.3315C406.755 57.1127 406.038 60.1393 405.954 63.4112V82.583C405.954 85.3445 403.715 87.583 400.954 87.583H399.191C396.43 87.583 394.191 85.3445 394.191 82.583V54.0861C394.107 51.4685 393.39 49.3008 392.041 47.583C390.776 45.7834 388.626 44.8018 385.591 44.6382C382.471 44.6382 379.731 45.538 377.37 47.3376C375.009 49.1372 373.154 51.4685 371.805 54.3315C370.54 57.1945 369.908 60.262 369.908 63.5339V82.583C369.908 85.3445 367.669 87.583 364.908 87.583H363.145C360.384 87.583 358.145 85.3445 358.145 82.583V41.7855C358.145 39.024 360.384 36.7855 363.145 36.7855H366.899Z" fill="#7469B6"/>
<path d="M321.311 88.5644C317.601 88.5644 313.975 87.9509 310.434 86.7239C308.159 85.8627 306.14 84.736 304.377 83.3437C302.782 82.085 302.706 79.7853 303.919 78.156C305.438 76.1157 308.372 75.8916 310.488 77.3042C311.473 77.9625 312.467 78.5257 313.47 78.9938C315.83 79.9754 318.149 80.4662 320.426 80.4662C322.112 80.4662 323.672 80.2617 325.106 79.8527C326.539 79.4437 327.677 78.7893 328.52 77.8895C329.448 76.9079 329.912 75.5991 329.912 73.9631C329.912 72.1635 329.279 70.732 328.015 69.6686C326.834 68.6052 325.274 67.7463 323.335 67.0919C321.48 66.4376 319.498 65.824 317.39 65.2515C313.09 63.8609 309.802 61.9386 307.525 59.4846C305.248 57.0306 304.11 54.0449 304.11 50.5275C304.11 47.8281 304.785 45.3332 306.134 43.0429C307.567 40.6707 309.633 38.7484 312.331 37.276C315.114 35.8036 318.529 35.0674 322.576 35.0674C326.202 35.0674 329.448 35.5173 332.315 36.4171C334.071 36.9183 335.765 37.6345 337.395 38.5656C339.176 39.5831 339.54 41.911 338.413 43.6249C337.034 45.7215 334.043 45.9587 331.778 44.88C331.3 44.6524 330.804 44.449 330.291 44.2698C328.183 43.5336 326.286 43.1247 324.6 43.0429C323.166 42.9611 321.775 43.1655 320.426 43.6563C319.161 44.1471 318.107 44.8424 317.264 45.7422C316.421 46.642 315.999 47.7054 315.999 48.9324C315.999 50.6502 316.589 52.0408 317.77 53.1042C318.95 54.1676 320.468 55.0265 322.323 55.6809C324.262 56.2535 326.159 56.867 328.015 57.5214C330.628 58.2576 332.947 59.2392 334.971 60.4662C336.994 61.6932 338.597 63.2065 339.777 65.0061C341.042 66.8056 341.674 69.0551 341.674 71.7545C341.674 74.7811 340.915 77.6032 339.398 80.2208C337.964 82.7566 335.73 84.8016 332.694 86.3558C329.743 87.8282 325.949 88.5644 321.311 88.5644Z" fill="#7469B6"/>
<path d="M274.526 41.7852C274.526 39.0237 276.764 36.7852 279.526 36.7852H281.288C284.05 36.7852 286.288 39.0237 286.288 41.7852V82.5827C286.288 85.3442 284.05 87.5827 281.288 87.5827H279.526C276.764 87.5827 274.526 85.3442 274.526 82.5827V41.7852Z" fill="#7469B6"/>
<path d="M275.791 13.8405C274.357 15.0675 273.641 16.5808 273.641 18.3804C273.641 20.18 274.357 21.6933 275.791 22.9203C277.308 24.1473 278.953 24.7607 280.723 24.7607C282.494 24.7607 284.054 24.1882 285.403 23.043C286.837 21.816 287.553 20.2618 287.553 18.3804C287.553 16.5808 286.837 15.0675 285.403 13.8405C284.054 12.6135 282.494 12 280.723 12C278.953 12 277.308 12.6135 275.791 13.8405Z" fill="#7469B6"/>
<path d="M236.019 36.7855C236.838 36.7855 237.519 37.4161 237.582 38.2329L238.456 49.5404C238.478 49.8153 238.088 49.8921 238.003 49.6297C237.986 49.5759 237.989 49.5175 238.011 49.4657C239.359 46.3926 241.287 43.8018 243.794 41.6934C246.408 39.4848 249.106 37.808 251.889 36.6628C252.68 36.3242 253.442 36.0324 254.175 35.7873C256.898 34.8769 259.216 37.2351 259.055 40.1019L259 41.089C258.845 43.8576 256.438 45.8829 253.707 46.3655C251.735 46.714 249.907 47.3652 248.221 48.3192C245.27 50.037 242.909 52.3274 241.138 55.1904C239.452 58.0534 238.609 61.1209 238.609 64.3928V82.583C238.609 85.3445 236.37 87.583 233.609 87.583H231.973C229.211 87.583 226.973 85.3445 226.973 82.583V41.7855C226.973 39.024 229.211 36.7855 231.973 36.7855H236.019Z" fill="#7469B6"/>
<path d="M182.861 88.8097C178.898 88.8097 175.061 87.9099 171.351 86.1103C167.777 84.3363 164.981 81.9661 162.964 78.9997C162.908 78.9177 162.889 78.8163 162.91 78.7193C163.001 78.2882 163.636 78.3551 163.636 78.7959V108.5C163.636 110.433 162.069 112 160.136 112H157C154.239 112 152 109.761 152 107V41.0489C152 38.2875 154.239 36.0489 157 36.0489H160.976C161.629 36.0489 162.18 36.5346 162.262 37.1824L163.316 45.5236C163.374 45.9813 162.725 46.1358 162.57 45.7011C162.525 45.5742 162.549 45.4329 162.635 45.3291C165.143 42.2956 168.301 39.7748 172.11 37.7667C175.989 35.7217 180.331 34.6992 185.137 34.6992C190.028 34.6992 194.412 35.8444 198.291 38.1348C202.254 40.4252 205.374 43.6154 207.65 47.7054C209.927 51.7953 211.065 56.5806 211.065 62.0612C211.065 67.5418 209.843 72.2862 207.398 76.2943C204.952 80.3025 201.579 83.4109 197.279 85.6195C193.063 87.7463 188.257 88.8097 182.861 88.8097ZM180.584 79.7299C183.957 79.7299 187.034 78.9937 189.817 77.5213C192.684 75.9671 194.96 73.8812 196.647 71.2637C198.333 68.5643 199.176 65.5377 199.176 62.1839C199.176 58.7483 198.375 55.7217 196.773 53.1041C195.171 50.4048 193.021 48.278 190.323 46.7238C187.709 45.1696 184.758 44.3925 181.469 44.3925C178.434 44.3925 175.694 44.9651 173.248 46.1103C170.803 47.2555 168.779 48.8506 167.177 50.8955C165.701 52.7044 164.619 54.791 163.93 57.1553C163.812 57.5594 163.762 57.9797 163.762 58.4006V65.8329C163.762 66.0992 163.782 66.3655 163.831 66.6273C164.288 69.0853 165.277 71.2851 166.798 73.2269C168.4 75.2718 170.382 76.8669 172.742 78.0121C175.188 79.1573 177.802 79.7299 180.584 79.7299Z" fill="#7469B6"/>
</svg>
